<?xml version="1.0" encoding="UTF-8"?>
<svg id="Layer_1" data-name="Layer 1" xmlns="http://www.w3.org/2000/svg" xmlns:xlink="http://www.w3.org/1999/xlink" viewBox="0 0 797.05 487.37">
  <defs>
    <style>
      .cls-1 {
        fill: url(#linear-gradient);
      }

      .cls-2 {
        fill: #cfb991;
      }

      .cls-3 {
        fill: #c2ab7e;
      }

      .cls-4 {
        fill: #fff;
      }

      .cls-5 {
        fill: #b58722;
      }
    </style>
    <linearGradient id="linear-gradient" x1="398.52" y1="466.59" x2="398.52" y2="20.79" gradientUnits="userSpaceOnUse">
      <stop offset="0" stop-color="#000"/>
      <stop offset="1" stop-color="#555960"/>
    </linearGradient>
  </defs>
  <path class="cls-2" d="M687.41,252.3l46.14,36.78c4.64,2.26,11.63,7.69,16.7,7.19,5.11-.5,7.5-6.51,18.12-6.19,27.23.84,26.82,39.96-.02,40.28-20.28.24-15.4-12.66-23.06-19.06-3.24-2.71-17.79-8.09-23.77-12.2-25.61-17.58-40.16-42.48-75.3-46.59l-375.19-.3c-9.31,24.84-46.53,20.4-47.48-6.89-1-28.95,36.37-34.73,48.15-10.02,121.94.87,244.68,2.37,366.84.89,10.3-.13,17.45-1.9,28.83-6.91,23.6-10.38,43.82-33.01,66.62-47.28,3.41-2.13,9.3-2.95,11.32-4.67,2.73-2.32,2.39-6.86,4.33-9.66,19.77-28.54,52.85,7.13,31.54,25.53-15.69,13.55-26.97-2.78-31.91-1.95-2.25.37-12.92,6.51-15.71,8.28l-46.14,36.78h66.95c2.18,0,19.28-26.98,37.04-7.06,15.37,17.25-3.18,43.2-25.55,33.52-4.46-1.93-8.59-10.49-9.49-10.49h-68.95Z"/>
  <path class="cls-2" d="M463.87,252.3l46.14,36.78c4.64,2.26,11.63,7.69,16.7,7.19s7.5-6.51,18.12-6.19c27.23.84,26.82,39.96-.02,40.28-20.28.24-15.4-12.66-23.06-19.06-3.24-2.71-17.79-8.09-23.77-12.2-25.61-17.58-40.16-42.48-75.3-46.59l-375.19-.3C38.18,277.05.96,272.62.02,245.33c-1-28.95,36.37-34.73,48.15-10.02,121.94.87,244.68,2.37,366.84.89,10.3-.13,17.45-1.9,28.83-6.91,23.6-10.38,43.82-33.01,66.62-47.28,3.41-2.13,9.3-2.95,11.32-4.67,2.73-2.32,2.39-6.86,4.33-9.66,19.77-28.54,52.85,7.13,31.54,25.53-15.69,13.55-26.97-2.78-31.91-1.95-2.25.37-12.92,6.51-15.71,8.28l-46.14,36.78h66.95c2.18,0,19.28-26.98,37.04-7.06,15.37,17.25-3.18,43.2-25.55,33.52-4.46-1.93-8.59-10.49-9.49-10.49h-68.95Z"/>
  <circle class="cls-5" cx="398.52" cy="243.69" r="243.69"/>
  <g>
    <path class="cls-1" d="M398.52,466.59c-59.54,0-115.51-23.19-157.61-65.29-42.1-42.1-65.29-98.08-65.29-157.61s23.19-115.51,65.29-157.61c42.1-42.1,98.08-65.29,157.61-65.29s115.51,23.19,157.61,65.29c42.1,42.1,65.29,98.08,65.29,157.61s-23.19,115.51-65.29,157.61c-42.1,42.1-98.08,65.29-157.61,65.29Z"/>
    <path d="M398.52,21.29c30.02,0,59.15,5.88,86.57,17.48,26.48,11.2,50.27,27.24,70.69,47.66,20.43,20.43,36.46,44.21,47.66,70.69,11.6,27.42,17.48,56.54,17.48,86.57s-5.88,59.15-17.48,86.57c-11.2,26.48-27.24,50.27-47.66,70.69-20.43,20.43-44.21,36.46-70.69,47.66-27.42,11.6-56.54,17.48-86.57,17.48s-59.15-5.88-86.57-17.48c-26.48-11.2-50.27-27.24-70.69-47.66-20.43-20.43-36.46-44.21-47.66-70.69-11.6-27.42-17.48-56.54-17.48-86.57s5.88-59.15,17.48-86.57c11.2-26.48,27.24-50.27,47.66-70.69,20.43-20.43,44.21-36.46,70.69-47.66,27.42-11.6,56.54-17.48,86.57-17.48M398.52,20.29c-123.38,0-223.4,100.02-223.4,223.4s100.02,223.4,223.4,223.4,223.4-100.02,223.4-223.4S521.9,20.29,398.52,20.29h0Z"/>
  </g>
  <g>
    <path class="cls-3" d="M493.43,351.5l-90.6-206.88-1.91,1.1-33.61,78.53-53.23,18.83,66.2-145.12.15-.19c4.04-5.06,16.46-5.6,21.61-5.6,8.6,0,19.81,1.47,23.1,5.62l.16.21.1.24c16.78,38.84,35.23,77.81,53.07,115.49,17.25,36.44,35.1,74.11,51.41,111.66.54,1.25,1.12,2.52,1.71,3.81,2.87,6.3,6.12,13.44,6.1,20.32v1.99h-44.28Z"/>
    <path class="cls-4" d="M402.06,94.16c9.46,0,19.07,1.76,21.53,4.86,33.02,76.45,71.31,150.82,104.48,227.15,3.19,7.34,7.66,15.55,7.64,23.32h-40.97l-90.97-207.72-4.42,2.54-33.53,78.34-47.96,16.97,64.15-140.61c2.67-3.34,11.29-4.85,20.05-4.85M402.06,90.16h0c-6.76,0-18.75.83-23.17,6.35l-.31.39-.21.45-64.15,140.61-3.91,8.57,8.88-3.14,47.96-16.97,1.65-.58.69-1.61,32.63-76.24,88.95,203.11,1.05,2.4h47.57v-3.99c.03-7.32-3.32-14.67-6.27-21.15-.6-1.31-1.16-2.55-1.69-3.78-16.33-37.57-34.18-75.26-51.44-111.71-17.84-37.67-36.28-76.61-53.04-115.43l-.21-.48-.33-.41c-1.8-2.27-5.21-3.91-10.44-5.03-4.11-.87-9.16-1.35-14.22-1.35h0Z"/>
  </g>
  <g>
    <path class="cls-3" d="M272.89,351.5c-1.22,0-2.33-.56-3.11-1.57-1.44-1.85-1.52-4.86-.96-7.02,1.65-6.37,11.42-27,14.94-33.66,22.38-42.31,67.01-67.57,119.39-67.57,3.12,0,6.29.09,9.44.27l.27.02.26.09c5.32,1.82,15.65,31.08,16.61,35.06l.59,2.47h-47.5c-2.05.12-19.62,5.85-23.57,7.48-24.43,10.09-33.25,32.33-42.6,55.87-.97,2.44-1.94,4.88-2.92,7.31l-.51,1.25h-40.32Z"/>
    <path class="cls-4" d="M403.15,243.69c3.1,0,6.2.09,9.32.27,3.68,1.26,13.89,27.72,15.31,33.64h-44.97c-2.22,0-20.8,6.17-24.34,7.63-27.82,11.5-36.1,38.43-46.61,64.27h-38.97c-2.16,0-2.83-3.41-2.14-6.08,1.58-6.12,11.35-26.76,14.77-33.22,23.39-44.22,68.82-66.5,117.62-66.51M403.16,239.69h0c-25.35,0-49.64,5.93-70.25,17.16-21.76,11.85-39.36,29.65-50.91,51.48-2.97,5.61-13.33,27.23-15.11,34.09-.63,2.44-.66,6.19,1.31,8.74,1.17,1.51,2.84,2.34,4.69,2.34h41.66l1.01-2.49c.99-2.44,1.96-4.88,2.93-7.32,9.18-23.14,17.86-44.99,41.5-54.76,3.56-1.47,20.3-6.95,22.95-7.33h49.9l-1.18-4.93c-.83-3.44-3.91-11.88-7.02-19.19-6.74-15.87-9.24-16.73-10.89-17.29l-.52-.18-.55-.03c-3.18-.18-6.39-.28-9.54-.28h0Z"/>
  </g>
</svg>